<?xml version="1.0" standalone="no"?>
<!DOCTYPE svg PUBLIC "-//W3C//DTD SVG 20010904//EN"
 "http://www.w3.org/TR/2001/REC-SVG-20010904/DTD/svg10.dtd">
<svg version="1.0" xmlns="http://www.w3.org/2000/svg"
 width="435.000000pt" height="401.000000pt" viewBox="0 0 435.000000 401.000000"
 preserveAspectRatio="xMidYMid meet">

<g transform="translate(0.000000,401.000000) scale(0.100000,-0.100000)"
fill="#000000" stroke="none">
<path d="M1885 3034 c-16 -2 -70 -9 -120 -15 -200 -24 -444 -91 -645 -176
-265 -114 -522 -287 -730 -493 -115 -114 -229 -250 -263 -315 -30 -56 -29
-163 1 -222 57 -109 324 -385 499 -515 354 -264 704 -404 1168 -470 129 -18
483 -15 618 5 550 84 999 306 1368 676 155 156 251 273 270 328 19 57 15 141
-8 193 -27 61 -145 200 -289 341 -356 346 -797 563 -1309 644 -95 15 -490 29
-560 19z m-115 -344 l0 -60 -42 -21 c-66 -33 -159 -102 -204 -150 -44 -49
-113 -149 -132 -191 l-12 -28 -180 0 -180 0 0 -320 0 -320 183 0 182 0 34 -63
c45 -82 185 -221 279 -277 l72 -42 0 -59 c0 -41 -4 -59 -12 -59 -29 0 -200 40
-300 69 -121 35 -291 104 -388 157 -254 139 -512 354 -662 551 l-40 52 55 68
c69 86 239 252 339 330 164 130 412 264 613 331 123 42 318 90 368 91 27 1 27
0 27 -59z m851 19 c435 -106 817 -349 1133 -722 58 -68 63 -53 -76 -207 -322
-356 -759 -595 -1230 -675 l-38 -6 0 63 0 63 61 35 c114 66 222 174 282 282
l32 58 188 0 187 0 0 320 0 320 -185 0 -185 0 -24 48 c-59 116 -163 225 -288
301 l-63 38 -3 63 -3 62 46 -7 c26 -3 100 -20 166 -36z m-730 -425 c56 -56 66
-70 59 -88 -4 -12 -18 -70 -30 -129 -20 -96 -25 -107 -38 -94 -12 13 -13 27
-3 99 6 45 14 95 17 111 5 25 3 27 -26 27 -17 0 -33 -6 -35 -12 -2 -7 -12 -42
-23 -78 l-18 -65 -53 55 c-48 50 -50 55 -32 62 33 12 26 38 -9 38 -16 0 -30 5
-30 10 0 17 120 130 138 130 9 0 47 -30 83 -66z m554 1 c36 -35 65 -73 65 -83
0 -10 -15 -33 -34 -51 -33 -32 -33 -32 -29 -7 4 17 12 26 24 26 12 0 19 7 19
20 0 17 -7 20 -49 20 -40 0 -50 -3 -54 -20 -3 -14 0 -20 10 -20 12 0 14 -7 9
-31 -3 -17 -6 -38 -6 -46 0 -15 -140 -166 -147 -159 -6 6 38 221 48 237 18 30
22 -5 7 -72 -15 -69 -15 -70 6 -67 17 2 23 16 35 76 16 79 10 105 -26 110 -47
7 -61 -23 -103 -222 -46 -219 -49 -252 -20 -261 47 -15 80 20 94 99 l7 39 21
-20 c18 -18 19 -26 10 -67 -9 -45 -9 -47 12 -44 13 2 22 11 24 26 4 28 23 24
37 -6 5 -12 15 -22 20 -22 6 0 28 -18 50 -40 37 -38 38 -41 25 -66 -18 -33
-127 -134 -144 -134 -21 0 -243 234 -226 238 22 4 120 464 101 470 -15 5 116
142 136 142 8 0 43 -29 78 -65z m-290 -311 c-25 -115 -45 -213 -45 -217 0 -5
-5 -5 -11 -1 -7 4 -69 -51 -149 -131 l-138 -138 -76 74 c-42 41 -76 79 -76 85
0 5 32 41 71 79 60 60 69 66 64 43 -6 -24 -4 -28 13 -28 22 0 32 18 32 60 0
15 9 38 21 51 22 26 21 28 6 -36 -19 -79 -20 -75 18 -75 61 0 77 27 109 180
38 185 46 216 55 201 4 -6 -10 -89 -30 -184 -21 -94 -39 -178 -39 -184 0 -19
64 -16 89 5 17 13 30 58 62 212 37 173 54 229 65 217 2 -2 -16 -98 -41 -213z
m-155 176 c0 -34 -71 -354 -81 -364 -5 -5 -11 -7 -14 -5 -2 3 13 90 35 193 22
103 40 189 40 191 0 3 5 5 10 5 6 0 10 -9 10 -20z m89 -198 c-17 -82 -35 -156
-40 -163 -22 -35 -18 13 10 147 28 131 45 183 58 171 2 -2 -11 -72 -28 -155z
m-252 86 c-3 -7 -5 -2 -5 12 0 14 2 19 5 13 2 -7 2 -19 0 -25z m425 -130 c5
-14 -17 -126 -26 -135 -16 -16 -18 13 -6 77 13 66 23 85 32 58z"/>
</g>
</svg>
